<?xml version="1.0" encoding="utf-8"?>
<!-- Generator: Adobe Illustrator 24.1.2, SVG Export Plug-In . SVG Version: 6.00 Build 0)  -->
<svg version="1.1" id="Layer_1" xmlns="http://www.w3.org/2000/svg" xmlns:xlink="http://www.w3.org/1999/xlink" x="0px" y="0px"
	 viewBox="0 0 147 409" style="enable-background:new 0 0 147 409;" xml:space="preserve">
<style type="text/css">
	.st0{fill:#FFFFFF;stroke:#FF6B00;stroke-width:0.4962;stroke-miterlimit:10;}
	.st1{fill:#262626;}
	.st2{fill:#FFFFFF;stroke:#262626;stroke-width:0.4962;stroke-miterlimit:10;}
</style>
<path class="st0" d="M206.8,347.5l13.4-3.7l-3.7-13.4l-13.4,3.7l-3.7-13.4l13.4-3.7l-3.7-13.4l-13.4,3.7l-13.4,3.7l-3.7-13.4
	l13.4-3.7l-3.7-13.4l-13.4,3.7l3.7,13.4l-13.4,3.7l-13.4,3.7l-3.7-13.4l-13.4,3.7l-13.4,3.7l3.7,13.4l3.7,13.4l-13.4,3.7l-3.7-13.4
	l-6,1.7l-6.3-90.4c0,0,8.9-13.2,32.8-14.1c35.8-1.3,53.3,18,83,24.6c18.6,4.2,22.7-4.2,22.7-4.2l12.1,77.7c0,0,31.1-6.7,48.9,14.1
	c10.6,12.4-5.3,25.4-21.7,29.9c-17.1,4.8-37.4,1.8-69.9-7L206.8,347.5z"/>
<path class="st0" d="M144.2,330c-5.2,0-9.8,0.7-14,1.8l-1.6-5.9l13.4-3.7L144.2,330z"/>
<path class="st0" d="M108.5,345.8l-1,0.3l-1-14.2l8.7-2.4l2.2,7.8C112.9,340.3,109.9,343.6,108.5,345.8z"/>
<path class="st0" d="M138.3,308.7l13.4-3.7l3.7,13.4l-13.4,3.7L138.3,308.7z"/>
<path class="st1" d="M155.7,215.3c0,0-13-6.7-29.4-1.1c-16.4,5.7-56.1,42.2-56.1,42.2L69,327.4c0,0,48.4-41.1,64.4-44.5
	c15.2-3.3,28.2,3.3,28.2,3.3L155.7,215.3z"/>
<path class="st0" d="M143.1,197.7c0,0-12.3-3.7-29.4-1.1c-15.5,2.4-56.1,42.2-56.1,42.2l-1.2,70.9c0,0,48.9-39.3,64.4-44.5
	c15.5-5.2,27.9,0.3,27.9,0.3L143.1,197.7z"/>
<path class="st1" d="M102.3,201.9l0.2,31.7l-30.9,24.9l0.2-33.1L94.4,207L102.3,201.9z"/>
<path class="st0" d="M137.9,337.7l34.7-9.6l6.1,22l-34.7,9.6L137.9,337.7z"/>
<path d="M169.8,341.2l-3.8,3.5l-0.2-0.9l2.9-2.6l0-0.1l-3.8-0.7l-0.2-0.9l5.1,1L169.8,341.2z M159.8,338.7l0.7-0.2l4.6,7.8l-0.7,0.2
	L159.8,338.7z M156.4,347.6l-3.9-2.2l2.2-3.9l0.7,0.4l-1.6,2.8l5.6-1.6l0.2,0.8l-5.6,1.6l2.8,1.6L156.4,347.6z M146.3,347.8
	l-0.2-0.6l3.8-3.5l0.2,0.9l-2.9,2.6l0,0.1l3.8,0.7l0.2,0.9L146.3,347.8z"/>
<path class="st2" d="M94.3,200l0.1,31.7l-30.9,24.9l0.2-30.6L94.3,200z"/>
<path class="st2" d="M138.7,173.9l-2.8-29.8l30.9-24.8l2.5,28.5L138.7,173.9z"/>
<path class="st2" d="M79.7,237.5l0,11.2l-10.9,8.8l0.1-10.8L79.7,237.5z"/>
<path class="st2" d="M119.3,254.2l0.1,18L102.4,283l0.1-17.4L119.3,254.2z"/>
</svg>
