<?xml version="1.0" encoding="utf-8"?>
<!-- Generator: Adobe Illustrator 24.1.2, SVG Export Plug-In . SVG Version: 6.00 Build 0)  -->
<svg version="1.1" id="Layer_1" xmlns="http://www.w3.org/2000/svg" xmlns:xlink="http://www.w3.org/1999/xlink" x="0px" y="0px"
	 viewBox="0 0 375 590" style="enable-background:new 0 0 375 590;" xml:space="preserve">
<style type="text/css">
	.st0{fill:#FFFFFF;stroke:#FF6B00;stroke-width:0.6079;stroke-miterlimit:10;}
	.st1{fill:#262626;}
	.st2{fill:#FFFFFF;stroke:#262626;stroke-width:0.6079;stroke-miterlimit:10;}
</style>
<g>
	<path class="st0" d="M450.7,574.2l16.4-4.6l-4.6-16.4l-16.4,4.6l-4.6-16.4l16.4-4.6l-4.6-16.4l-16.4,4.6l-16.4,4.6l-4.6-16.4
		l16.4-4.6l-4.6-16.4l-16.4,4.6l4.6,16.4l-16.4,4.6l-16.4,4.6l-4.6-16.4l-16.4,4.6l-16.4,4.6l4.6,16.4l4.6,16.4l-16.4,4.6l-4.6-16.4
		l-7.3,2l-7.7-110.7c0,0,10.9-16.2,40.2-17.3c43.8-1.5,65.3,22,101.6,30.1c22.8,5.1,27.9-5.1,27.9-5.1l14.8,95.1
		c0,0,38.2-8.3,59.9,17.3c12.9,15.2-6.5,31.1-26.6,36.6c-21,5.8-45.8,2.2-85.6-8.5L450.7,574.2z"/>
	<path class="st0" d="M374,552.8c-6.4,0-12,0.9-17.1,2.2l-2-7.2l16.4-4.6L374,552.8z"/>
	<path class="st0" d="M330.3,572.2l-1.3,0.4l-1.3-17.3l10.6-2.9l2.7,9.6C335.7,565.4,332,569.4,330.3,572.2z"/>
	<path class="st0" d="M366.7,526.7l16.4-4.6l4.6,16.4l-16.4,4.6L366.7,526.7z"/>
	<path class="st1" d="M388.1,412.3c0,0-15.9-8.3-36-1.3c-20.1,6.9-68.7,51.7-68.7,51.7l-1.5,86.9c0,0,59.3-50.3,78.9-54.5
		c18.6-4.1,34.5,4.1,34.5,4.1L388.1,412.3z"/>
	<path class="st0" d="M372.6,390.7c0,0-15-4.5-36-1.3c-18.9,2.9-68.7,51.7-68.7,51.7l-1.5,86.9c0,0,59.9-48.2,78.9-54.5
		c18.9-6.3,34.1,0.3,34.1,0.3L372.6,390.7z"/>
	<path class="st1" d="M322.7,395.9l0.3,38.9l-37.8,30.5l0.2-40.5l27.6-22.6L322.7,395.9z"/>
	<path class="st0" d="M366.2,562.3l42.5-11.8l7.5,26.9l-42.5,11.8L366.2,562.3z"/>
	<path d="M405.4,566.6l-4.7,4.3l-0.3-1.1l3.6-3.1l0-0.1l-4.7-0.8l-0.3-1.1l6.2,1.3L405.4,566.6z M393.2,563.5l0.9-0.3l5.6,9.6
		l-0.9,0.3L393.2,563.5z M389,574.4l-4.8-2.7l2.7-4.8l0.8,0.5l-1.9,3.4l6.9-1.9l0.3,0.9l-6.9,1.9l3.4,1.9L389,574.4z M376.6,574.6
		l-0.2-0.7l4.7-4.3l0.3,1.1l-3.6,3.1l0,0.1l4.7,0.8l0.3,1.1L376.6,574.6z"/>
	<path class="st2" d="M312.9,393.5l0.2,38.9l-37.8,30.5l0.2-37.5L312.9,393.5z"/>
	<path class="st2" d="M367.3,361.6l-3.4-36.5l37.9-30.4l3,35L367.3,361.6z"/>
	<path class="st2" d="M384.3,334.6c-2.4,0.7-4.8-0.7-5.5-3.1c-0.7-2.4,0.7-4.8,3.1-5.5c2.4-0.7,4.8,0.7,5.5,3.1
		C388.1,331.5,386.7,333.9,384.3,334.6z"/>
	<path class="st2" d="M295,439.5l0,13.7L281.7,464l0.1-13.2L295,439.5z"/>
	<path class="st2" d="M343.5,459.9l0.1,22l-20.7,13.2l0.1-21.3L343.5,459.9z"/>
</g>
</svg>
